# xmcd CD database file
#
# Track frame offsets:
#	150
#	92418
#	129829
#	148549
#	189019
#	232844
#
# Disc length: 3797 seconds
#
# Revision: 0
# Processed by: cddbd v1.5.1PL0 Copyright (c) Steve Scherf et al.
# Submitted via: CDex 1.51
#
DISCID=390ed306
DTITLE=John Coltrane - Blue Train (Castle Pulse)
DYEAR=1961
DGENRE=Jazz
TTITLE0=My Favourite Things
TTITLE1=Mr.PC
TTITLE2=Naima
TTITLE3=Blue Train
TTITLE4=I Want To Talk About You
TTITLE5=Traneing In
EXTD=YEAR: 1961
EXTT0=
EXTT1=
EXTT2=
EXTT3=
EXTT4=
EXTT5=
PLAYORDER=
